<svg width="173" height="106" viewBox="0 0 173 106" fill="none" xmlns="http://www.w3.org/2000/svg">
<path d="M0.015625 87H3.18362V105H0.015625V87Z" fill="white"/>
<path d="M23.8909 103.08L22.5949 103.224V87H25.6669V105H21.6349L9.01094 88.776L10.2829 88.632V105H7.21094V87H11.3389L23.8909 103.08Z" fill="white"/>
<path d="M28.5835 99.144H31.7995C31.8955 99.864 32.1915 100.496 32.6875 101.04C33.1995 101.584 33.8715 102.008 34.7035 102.312C35.5355 102.6 36.4955 102.744 37.5835 102.744C39.1995 102.744 40.4795 102.496 41.4235 102C42.3675 101.488 42.8395 100.8 42.8395 99.936C42.8395 99.232 42.5675 98.704 42.0235 98.352C41.4795 98 40.4955 97.736 39.0715 97.56L35.1835 97.056C33.0075 96.768 31.4235 96.232 30.4315 95.448C29.4555 94.648 28.9675 93.52 28.9675 92.064C28.9675 90.96 29.2955 90.008 29.9515 89.208C30.6235 88.392 31.5675 87.768 32.7835 87.336C33.9995 86.888 35.4235 86.664 37.0555 86.664C38.6715 86.664 40.1035 86.904 41.3515 87.384C42.5995 87.864 43.5915 88.536 44.3275 89.4C45.0795 90.248 45.4875 91.248 45.5515 92.4H42.3355C42.2555 91.76 41.9835 91.208 41.5195 90.744C41.0715 90.28 40.4635 89.92 39.6955 89.664C38.9275 89.392 38.0235 89.256 36.9835 89.256C35.5115 89.256 34.3355 89.496 33.4555 89.976C32.5755 90.456 32.1355 91.112 32.1355 91.944C32.1355 92.584 32.3915 93.08 32.9035 93.432C33.4315 93.768 34.3435 94.024 35.6395 94.2L39.5755 94.752C41.1915 94.976 42.4635 95.28 43.3915 95.664C44.3355 96.032 45.0075 96.536 45.4075 97.176C45.8075 97.8 46.0075 98.608 46.0075 99.6C46.0075 100.752 45.6555 101.76 44.9515 102.624C44.2475 103.488 43.2555 104.16 41.9755 104.64C40.7115 105.104 39.2315 105.336 37.5355 105.336C35.8075 105.336 34.2795 105.08 32.9515 104.568C31.6395 104.04 30.5995 103.312 29.8315 102.384C29.0635 101.456 28.6475 100.376 28.5835 99.144Z" fill="white"/>
<path d="M54.0346 88.464H57.2026V105H54.0346V88.464ZM46.5946 87H64.6426V89.784H46.5946V87Z" fill="white"/>
<path d="M66.3063 100.872V98.256H78.8822V100.872H66.3063ZM74.6582 87L83.2982 105H79.9143L72.0663 88.2H73.2903L65.4423 105H62.0583L70.6982 87H74.6582Z" fill="white"/>
<path d="M102.532 97.176C102.516 98.296 102.3 99.352 101.884 100.344C101.468 101.32 100.876 102.184 100.108 102.936C99.3398 103.688 98.4038 104.28 97.2998 104.712C96.2118 105.128 94.9638 105.336 93.5558 105.336C92.1318 105.336 90.8118 105.12 89.5958 104.688C88.3798 104.256 87.3158 103.64 86.4038 102.84C85.5078 102.024 84.8118 101.04 84.3158 99.888C83.8198 98.736 83.5718 97.44 83.5718 96C83.5718 94.56 83.8198 93.264 84.3158 92.112C84.8278 90.96 85.5398 89.984 86.4518 89.184C87.3638 88.368 88.4358 87.744 89.6678 87.312C90.8998 86.88 92.2518 86.664 93.7238 86.664C95.5638 86.664 97.1718 86.968 98.5478 87.576C99.9398 88.168 101.06 88.984 101.908 90.024C102.756 91.064 103.276 92.256 103.468 93.6H100.252C100.076 92.752 99.6918 92.016 99.0998 91.392C98.5238 90.768 97.7798 90.288 96.8678 89.952C95.9558 89.616 94.8998 89.448 93.6998 89.448C92.2918 89.448 91.0678 89.712 90.0278 90.24C89.0038 90.752 88.2038 91.496 87.6278 92.472C87.0678 93.448 86.7878 94.624 86.7878 96C86.7878 97.376 87.0758 98.56 87.6518 99.552C88.2438 100.544 89.0758 101.304 90.1478 101.832C91.2198 102.36 92.4838 102.624 93.9398 102.624C95.3478 102.624 96.5798 102.384 97.6358 101.904C98.6918 101.424 99.5238 100.76 100.132 99.912C100.74 99.048 101.068 98.048 101.116 96.912L102.532 97.176ZM94.5638 98.544V96.144H103.66V105H101.308L100.924 97.536L101.668 98.544H94.5638Z" fill="white"/>
<path d="M109.427 95.112H116.747C117.803 95.112 118.635 94.872 119.243 94.392C119.867 93.912 120.179 93.256 120.179 92.424C120.179 91.576 119.867 90.92 119.243 90.456C118.635 89.976 117.803 89.736 116.747 89.736H108.971L110.387 87.96V105H107.219V87H117.035C118.299 87 119.403 87.232 120.347 87.696C121.307 88.144 122.051 88.776 122.579 89.592C123.123 90.392 123.395 91.336 123.395 92.424C123.395 93.48 123.123 94.416 122.579 95.232C122.051 96.032 121.307 96.664 120.347 97.128C119.403 97.576 118.299 97.8 117.035 97.8H109.427V95.112ZM112.979 96.576H116.699L123.851 105H120.059L112.979 96.576Z" fill="white"/>
<path d="M128.65 100.872V98.256H141.226V100.872H128.65ZM137.002 87L145.642 105H142.258L134.41 88.2H135.634L127.786 105H124.402L133.042 87H137.002Z" fill="white"/>
<path d="M172.052 87V105H169.028V87.96L170.012 88.008L161.636 105H158.252L149.876 88.032L150.86 87.984V105H147.836V87H152.684L160.748 103.632H159.164L167.204 87H172.052Z" fill="white"/>
<path fill-rule="evenodd" clip-rule="evenodd" d="M87.0007 44.8193C95.7368 44.8193 102.819 37.7372 102.819 29.0011C102.819 20.265 95.7368 13.1829 87.0007 13.1829C78.2646 13.1829 71.1825 20.265 71.1825 29.0011C71.1825 37.7372 78.2646 44.8193 87.0007 44.8193ZM87.0007 39.5466C92.8247 39.5466 97.5462 34.8251 97.5462 29.0011C97.5462 23.177 92.8247 18.4556 87.0007 18.4556C81.1766 18.4556 76.4553 23.177 76.4553 29.0011C76.4553 34.8251 81.1766 39.5466 87.0007 39.5466Z" fill="white"/>
<path d="M102.819 10.5487C101.363 10.5487 100.183 11.7291 100.183 13.1851C100.183 14.6411 101.363 15.8215 102.819 15.8215C104.275 15.8215 105.455 14.6411 105.455 13.1851C105.455 11.7291 104.275 10.5487 102.819 10.5487Z" fill="white"/>
<path fill-rule="evenodd" clip-rule="evenodd" d="M59.7237 8.63689C57.9996 12.0206 57.9996 16.4501 57.9996 25.3091V32.6909C57.9996 41.5499 57.9996 45.9795 59.7237 49.363C61.2402 52.3395 63.6601 54.7594 66.6365 56.2758C70.0202 58 74.4497 58 83.3087 58H90.6905C99.5495 58 103.979 58 107.363 56.2758C110.339 54.7594 112.759 52.3395 114.275 49.363C116 45.9795 116 41.5499 116 32.6909V25.3091C116 16.4501 116 12.0206 114.275 8.63689C112.759 5.66048 110.339 3.24062 107.363 1.72408C103.979 0 99.5495 0 90.6905 0H83.3087C74.4497 0 70.0202 0 66.6365 1.72408C63.6601 3.24062 61.2402 5.66048 59.7237 8.63689ZM90.6905 5.27273H83.3087C78.7922 5.27273 75.7219 5.27684 73.3487 5.47072C71.0371 5.65959 69.8549 6.00192 69.0303 6.4221C67.046 7.43315 65.4328 9.04639 64.4217 11.0307C64.0015 11.8553 63.6592 13.0375 63.4703 15.3491C63.2765 17.7223 63.2724 20.7926 63.2724 25.3091V32.6909C63.2724 37.2075 63.2765 40.2776 63.4703 42.6508C63.6592 44.9627 64.0015 46.1448 64.4217 46.9695C65.4328 48.9536 67.046 50.5668 69.0303 51.5778C69.8549 51.9981 71.0371 52.3405 73.3487 52.5293C75.7219 52.7231 78.7922 52.7273 83.3087 52.7273H90.6905C95.2072 52.7273 98.2772 52.7231 100.65 52.5293C102.962 52.3405 104.144 51.9981 104.969 51.5778C106.953 50.5668 108.566 48.9536 109.577 46.9695C109.998 46.1448 110.34 44.9627 110.529 42.6508C110.723 40.2776 110.727 37.2075 110.727 32.6909V25.3091C110.727 20.7926 110.723 17.7223 110.529 15.3491C110.34 13.0375 109.998 11.8553 109.577 11.0307C108.566 9.04639 106.953 7.43315 104.969 6.4221C104.144 6.00192 102.962 5.65959 100.65 5.47072C98.2772 5.27684 95.2072 5.27273 90.6905 5.27273Z" fill="white"/>
</svg>
