<svg width="133" height="105" viewBox="0 0 133 105" fill="none" xmlns="http://www.w3.org/2000/svg">
<path d="M3.18362 87V103.584L1.76762 102.216H15.3276V105H0.015625V87H3.18362Z" fill="white"/>
<path d="M17.7344 87H20.9024V105H17.7344V87Z" fill="white"/>
<path d="M41.6097 103.08L40.3137 103.224V87H43.3857V105H39.3537L26.7297 88.776L28.0017 88.632V105H24.9297V87H29.0577L41.6097 103.08Z" fill="white"/>
<path d="M47.4062 105V87H50.5742V102.336L49.6143 101.736L61.6623 87H65.0943L50.2383 105H47.4062ZM55.9743 95.952L58.2062 93.768L65.3583 105H61.7343L55.9743 95.952Z" fill="white"/>
<path d="M81.751 94.68V97.32H69.175V94.68H81.751ZM71.263 96L69.991 104.04L68.479 102.264H82.447V105H66.751L68.191 96L66.751 87H82.327V89.736H68.479L69.991 87.96L71.263 96Z" fill="white"/>
<path d="M93.886 87C95.934 87 97.726 87.376 99.262 88.128C100.814 88.88 102.022 89.936 102.886 91.296C103.75 92.64 104.182 94.208 104.182 96C104.182 97.792 103.75 99.368 102.886 100.728C102.022 102.072 100.814 103.12 99.262 103.872C97.726 104.624 95.934 105 93.886 105H85.75V87H93.886ZM88.918 103.896L87.166 102.216H94.102C95.478 102.216 96.678 101.96 97.702 101.448C98.742 100.92 99.542 100.192 100.102 99.264C100.678 98.32 100.966 97.232 100.966 96C100.966 94.752 100.678 93.664 100.102 92.736C99.542 91.808 98.742 91.088 97.702 90.576C96.678 90.048 95.478 89.784 94.102 89.784H87.166L88.918 88.104V103.896Z" fill="white"/>
<path d="M107.266 87H110.434V105H107.266V87Z" fill="white"/>
<path d="M131.141 103.08L129.845 103.224V87H132.917V105H128.885L116.261 88.776L117.533 88.632V105H114.461V87H118.589L131.141 103.08Z" fill="white"/>
<path fill-rule="evenodd" clip-rule="evenodd" d="M86.5725 48.5693H78.1187V35.3418C78.1187 32.1872 78.0653 28.1295 73.7262 28.1295C69.3282 28.1295 68.6567 31.5673 68.6567 35.1156V48.5693H60.2118V21.3679H68.3165V25.0871H68.4323C69.5598 22.9478 72.3172 20.6928 76.4301 20.6928C84.9908 20.6928 86.5725 26.3251 86.5725 33.6514V48.5693ZM50.6803 17.6522C47.9639 17.6522 45.7748 15.4559 45.7748 12.7484C45.7748 10.0427 47.9639 7.84641 50.6803 7.84641C53.3843 7.84641 55.5806 10.0427 55.5806 12.7484C55.5806 15.4559 53.3843 17.6522 50.6803 17.6522ZM54.909 48.5693H46.4463V21.3679H54.909V48.5693ZM92.6252 0H40.3758C39.063 0 37.9996 1.06341 37.9996 2.37441V54.6238C37.9996 55.9366 39.063 57 40.3758 57H92.6252C93.9362 57 94.9996 55.9366 94.9996 54.6238V2.37441C94.9996 1.06341 93.9362 0 92.6252 0Z" fill="white"/>
</svg>
