<svg width="133" height="100" viewBox="0 0 133 100" fill="none" xmlns="http://www.w3.org/2000/svg">
<path d="M7.82281 83.464H10.9908V100H7.82281V83.464ZM0.382812 82H18.4308V84.784H0.382812V82Z" fill="white"/>
<path d="M42.4351 98.8H41.2351L46.7551 82H50.0671L43.9711 100H39.9391L33.8671 83.512H35.3551L29.2831 100H25.2511L19.1551 82H22.4911L27.9871 98.8L26.8351 98.776L32.9071 82H36.3391L42.4351 98.8Z" fill="white"/>
<path d="M52.4289 82H55.5969V100H52.4289V82Z" fill="white"/>
<path d="M65.4322 83.464H68.6002V100H65.4322V83.464ZM57.9922 82H76.0402V84.784H57.9922V82Z" fill="white"/>
<path d="M84.2525 83.464H87.4205V100H84.2525V83.464ZM76.8125 82H94.8605V84.784H76.8125V82Z" fill="white"/>
<path d="M111.641 89.68V92.32H99.0648V89.68H111.641ZM101.153 91L99.8808 99.04L98.3688 97.264H112.337V100H96.6408L98.0808 91L96.6408 82H112.217V84.736H98.3688L99.8808 82.96L101.153 91Z" fill="white"/>
<path d="M117.848 90.112H125.168C126.224 90.112 127.056 89.872 127.664 89.392C128.288 88.912 128.6 88.256 128.6 87.424C128.6 86.576 128.288 85.92 127.664 85.456C127.056 84.976 126.224 84.736 125.168 84.736H117.392L118.808 82.96V100H115.64V82H125.456C126.72 82 127.824 82.232 128.768 82.696C129.728 83.144 130.472 83.776 131 84.592C131.544 85.392 131.816 86.336 131.816 87.424C131.816 88.48 131.544 89.416 131 90.232C130.472 91.032 129.728 91.664 128.768 92.128C127.824 92.576 126.72 92.8 125.456 92.8H117.848V90.112ZM121.4 91.576H125.12L132.272 100H128.48L121.4 91.576Z" fill="white"/>
<path fill-rule="evenodd" clip-rule="evenodd" d="M96.9988 6.15609C94.7894 7.20132 92.4176 7.90397 89.9294 8.22557C92.4706 6.60004 94.4223 4.03062 95.3435 0.961319C92.9612 2.46802 90.3212 3.56219 87.5188 4.14948C85.2776 1.59405 82.0729 0 78.5365 0C71.7318 0 66.2188 5.8799 66.2188 13.1302C66.2188 14.1615 66.3317 15.1613 66.5365 16.1226C56.3082 15.5738 47.2271 10.351 41.1565 2.40509C40.1012 4.34179 39.4906 6.60007 39.4906 9.00517C39.4906 13.5602 42.3353 17.5733 45.6388 19.933C43.62 19.8631 40.7294 19.2688 40.7294 18.283V18.4578C40.7294 24.8132 44.3047 30.1163 49.9341 31.3293C48.9035 31.623 47.4847 31.7873 46.3588 31.7873C45.5647 31.7873 44.6259 31.7034 43.8706 31.5461C45.4412 36.7618 49.9059 40.5583 55.2918 40.6701C51.0776 44.1834 45.7271 46.2844 39.96 46.2844C38.9647 46.2844 37.9588 46.2214 36.9988 46.1026C42.4518 49.8221 48.9106 52 55.8635 52C78.5188 52 90.8965 32.0005 90.8965 14.6544C90.8965 14.0845 90.8823 13.5112 90.8541 12.9484C93.2612 11.0991 95.3506 8.78841 96.9988 6.15609Z" fill="white"/>
</svg>
