<svg width="140" height="105" viewBox="0 0 140 105" fill="none" xmlns="http://www.w3.org/2000/svg">
<path d="M9.10538 104V95.408H12.2734V104H9.10538ZM0.609375 86H4.18538L11.5294 95.216H9.82538L17.1694 86H20.7454L11.6974 97.352L9.68138 97.376L0.609375 86Z" fill="white"/>
<path d="M30.492 104.336C28.444 104.336 26.644 103.944 25.092 103.16C23.54 102.376 22.332 101.288 21.468 99.896C20.604 98.488 20.172 96.856 20.172 95C20.172 93.144 20.604 91.52 21.468 90.128C22.332 88.72 23.54 87.624 25.092 86.84C26.644 86.056 28.444 85.664 30.492 85.664C32.54 85.664 34.34 86.056 35.892 86.84C37.444 87.624 38.652 88.72 39.516 90.128C40.38 91.52 40.812 93.144 40.812 95C40.812 96.856 40.38 98.488 39.516 99.896C38.652 101.288 37.444 102.376 35.892 103.16C34.34 103.944 32.54 104.336 30.492 104.336ZM30.492 101.504C31.948 101.504 33.204 101.24 34.26 100.712C35.316 100.184 36.132 99.432 36.708 98.456C37.3 97.48 37.596 96.328 37.596 95C37.596 93.672 37.3 92.52 36.708 91.544C36.132 90.568 35.316 89.816 34.26 89.288C33.204 88.76 31.948 88.496 30.492 88.496C29.052 88.496 27.796 88.76 26.724 89.288C25.668 89.816 24.844 90.568 24.252 91.544C23.676 92.52 23.388 93.672 23.388 95C23.388 96.328 23.676 97.48 24.252 98.456C24.844 99.432 25.668 100.184 26.724 100.712C27.796 101.24 29.052 101.504 30.492 101.504Z" fill="white"/>
<path d="M46.8178 96.272C46.8178 97.344 47.0338 98.272 47.4658 99.056C47.8978 99.84 48.5138 100.448 49.3138 100.88C50.1298 101.296 51.0978 101.504 52.2178 101.504C53.3538 101.504 54.3218 101.296 55.1218 100.88C55.9218 100.448 56.5378 99.84 56.9698 99.056C57.4018 98.272 57.6178 97.344 57.6178 96.272V86H60.7858V96.392C60.7858 97.976 60.4258 99.368 59.7058 100.568C58.9858 101.752 57.9858 102.68 56.7058 103.352C55.4258 104.008 53.9298 104.336 52.2178 104.336C50.5218 104.336 49.0258 104.008 47.7298 103.352C46.4498 102.68 45.4498 101.752 44.7298 100.568C44.0098 99.368 43.6498 97.976 43.6498 96.392V86H46.8178V96.272Z" fill="white"/>
<path d="M70.3931 87.464H73.5611V104H70.3931V87.464ZM62.9531 86H81.0011V88.784H62.9531V86Z" fill="white"/>
<path d="M86.3334 96.272C86.3334 97.344 86.5494 98.272 86.9814 99.056C87.4134 99.84 88.0294 100.448 88.8294 100.88C89.6454 101.296 90.6134 101.504 91.7334 101.504C92.8694 101.504 93.8374 101.296 94.6374 100.88C95.4374 100.448 96.0534 99.84 96.4854 99.056C96.9174 98.272 97.1334 97.344 97.1334 96.272V86H100.301V96.392C100.301 97.976 99.9414 99.368 99.2214 100.568C98.5014 101.752 97.5014 102.68 96.2214 103.352C94.9414 104.008 93.4454 104.336 91.7334 104.336C90.0374 104.336 88.5414 104.008 87.2454 103.352C85.9654 102.68 84.9654 101.752 84.2454 100.568C83.5254 99.368 83.1654 97.976 83.1654 96.392V86H86.3334V96.272Z" fill="white"/>
<path d="M115.021 95.072L115.333 94.376C116.757 94.392 117.917 94.608 118.813 95.024C119.725 95.44 120.389 96 120.805 96.704C121.237 97.408 121.453 98.2 121.453 99.08C121.453 100.04 121.221 100.888 120.757 101.624C120.309 102.36 119.645 102.944 118.765 103.376C117.885 103.792 116.789 104 115.477 104H103.477L104.893 94.76L103.477 86H115.045C116.709 86 117.989 86.392 118.885 87.176C119.797 87.944 120.253 89.008 120.253 90.368C120.253 91.088 120.077 91.792 119.725 92.48C119.389 93.152 118.837 93.728 118.069 94.208C117.317 94.672 116.301 94.96 115.021 95.072ZM106.669 103.112L105.445 101.456H115.117C116.109 101.456 116.877 101.232 117.421 100.784C117.981 100.32 118.261 99.664 118.261 98.816C118.261 97.92 117.933 97.224 117.277 96.728C116.637 96.232 115.685 95.984 114.421 95.984H106.621V93.536H114.109C114.957 93.536 115.661 93.304 116.221 92.84C116.781 92.36 117.061 91.68 117.061 90.8C117.061 90.144 116.829 89.608 116.365 89.192C115.901 88.76 115.229 88.544 114.349 88.544H105.445L106.669 86.888L107.941 94.76L106.669 103.112Z" fill="white"/>
<path d="M138.797 93.68V96.32H126.221V93.68H138.797ZM128.309 95L127.037 103.04L125.525 101.264H139.493V104H123.797L125.237 95L123.797 86H139.373V88.736H125.525L127.037 86.96L128.309 95Z" fill="white"/>
<path fill-rule="evenodd" clip-rule="evenodd" d="M63.2418 38.6868V16.0391C71.2817 19.8223 77.5086 23.477 84.8732 27.4172C78.799 30.7858 71.2817 34.5655 63.2418 38.6868ZM108.049 4.77539C106.662 2.94818 104.298 1.52586 101.781 1.05497C94.3846 -0.349659 48.2392 -0.353654 40.8464 1.05497C38.8284 1.43328 37.0314 2.3477 35.4877 3.76844C28.9834 9.80546 31.0216 42.1801 32.5893 47.4243C33.2486 49.6942 34.1009 51.3313 35.1742 52.4059C36.5571 53.8266 38.4505 54.8048 40.6253 55.2435C46.7156 56.5032 78.0916 57.2076 101.653 55.4326C103.823 55.0543 105.745 54.0446 107.261 52.5635C113.274 46.5506 112.864 12.3579 108.049 4.77539Z" fill="white"/>
</svg>
